<svg width="722" height="181" xmlns="http://www.w3.org/2000/svg">
 <!-- Created with Method Draw - http://github.com/duopixel/Method-Draw/ -->

 <g id="Layer_1">
  <title>Layer 1</title>
  <path stroke="null" fill-rule="evenodd" fill="#000000" d="m629.90846,3.02451c-6.14936,0.8063 -12.21767,1.82498 -13.97147,2.34371c-1.18087,0.35146 -2.70071,0.77623 -3.37681,0.94538c-1.85328,0.46235 -7.56972,2.42641 -7.95291,2.73089c-0.18607,0.14848 -0.9598,0.49054 -1.7188,0.76119c-3.66051,1.30436 -5.61328,2.33996 -12.07582,6.41091c-0.98744,0.62023 -7.10732,5.14602 -8.0266,5.9354c-0.33344,0.28568 -1.04086,0.82133 -1.57142,1.18783c-2.98625,2.06743 -11.24129,11.07203 -14.29386,15.5903c-3.28101,4.85846 -5.14903,7.88443 -6.23411,10.09658c-0.42371,0.86268 -0.89901,1.77799 -1.05928,2.03736c-0.37213,0.60143 -2.1812,4.60473 -2.1812,4.82651c0,0.09022 -0.32607,0.90967 -0.72768,1.81934c-8.12608,18.46967 -7.98423,48.36095 0.31502,66.65395c0.42924,0.94726 1.11823,2.49783 1.53089,3.44509c0.41266,0.94726 0.88611,1.93399 1.05191,2.19336c0.1658,0.25749 0.65031,1.17468 1.0777,2.03548c0.4274,0.8608 1.08139,2.07495 1.45168,2.69706c0.37029,0.62211 1.08139,1.82122 1.57879,2.66323c1.75749,2.97522 5.1564,7.52733 8.28819,11.09646c0.68531,0.78186 2.00619,2.30988 2.93467,3.39434c2.60676,3.041 9.23326,8.57232 14.38229,12.00613c0.95612,0.63714 2.07435,1.41149 2.48333,1.72161c0.794,0.60143 2.28252,1.4566 4.78059,2.7478c0.84558,0.43604 1.74275,0.93034 1.99698,1.10138c1.518,1.0168 6.50123,3.00717 11.66684,4.65924c14.43387,4.61789 32.1856,5.28322 45.90285,1.72161c4.58715,-1.19159 10.31649,-2.89064 11.35919,-3.36991c0.50661,-0.23306 2.09646,-0.94162 3.53156,-1.57501c1.4351,-0.63151 2.81677,-1.28745 3.071,-1.45472c0.25239,-0.16727 1.15139,-0.65782 1.99514,-1.09198c2.5478,-1.30624 9.33826,-5.75309 11.9745,-7.84496c0.50661,-0.40221 1.51616,-1.19347 2.24384,-1.75732c2.51833,-1.95842 5.42905,-4.7908 8.95324,-8.71328c5.61696,-6.24928 7.25102,-8.47646 10.85626,-14.78401c0.81427,-1.42465 1.60827,-2.80231 1.76301,-3.06168c11.41262,-18.99592 13.3488,-52.28907 4.29977,-73.92567c-0.53977,-1.2912 -1.16982,-2.84178 -1.39825,-3.44509c-0.22844,-0.60331 -0.92848,-2.08435 -1.55668,-3.28909c-0.62636,-1.20663 -1.3522,-2.61624 -1.61195,-3.1331c-0.2616,-0.51686 -0.79584,-1.37578 -1.18824,-1.90955c-0.3924,-0.53189 -0.71479,-1.07506 -0.71479,-1.20475c0,-0.48303 -2.36542,-4.17245 -4.29792,-6.70411c-1.09797,-1.43968 -2.27331,-3.01093 -2.61044,-3.49396c-0.57662,-0.82509 -4.86901,-5.74934 -6.58781,-7.55552c-0.99296,-1.04499 -5.74407,-5.03325 -8.15003,-6.84319c-1.01323,-0.76307 -1.98224,-1.53554 -2.15357,-1.71785c-0.50293,-0.53377 -2.0633,-1.59944 -3.22022,-2.19711c-0.59136,-0.30448 -1.35035,-0.80818 -1.68748,-1.11641c-0.66689,-0.61083 -4.81375,-2.96206 -7.52367,-4.26642c-7.30628,-3.51839 -16.46033,-6.32258 -24.52561,-7.51229c-5.22088,-0.77059 -16.02924,-1.25361 -19.07261,-0.85516m-512.24313,8.22837c-14.44677,0.21238 -12.66902,-0.2838 -14.69178,4.10103c-0.67426,1.46412 -1.63037,3.53343 -2.12041,4.59909c-0.49188,1.06755 -0.89348,2.06931 -0.89348,2.22907c0,0.15788 -0.3316,0.7875 -0.73689,1.39646c-0.40529,0.60895 -0.83453,1.43968 -0.95243,1.84377c-0.24317,0.83073 -0.81795,2.15952 -2.42622,5.61589c-0.60794,1.30624 -1.1035,2.47904 -1.1035,2.6106c0,0.12968 -0.62267,1.57501 -1.38167,3.21203c-0.76084,1.63703 -1.38167,3.041 -1.38167,3.11994c0,0.13344 -1.80354,4.25891 -3.61261,8.26408c-1.483,3.28346 -2.60491,5.7982 -3.00284,6.73418c-0.21923,0.51686 -0.88059,1.99789 -1.4701,3.28909c-0.58767,1.29308 -1.43878,3.19512 -1.89197,4.22883c-3.95711,9.04595 -4.86901,10.69237 -5.65012,10.19995c-0.84743,-0.53377 -0.94322,-3.72889 -0.93033,-31.03025c0.00737,-15.41927 0.00553,-28.40085 -0.00368,-28.84817c-0.0129,-0.55445 -0.26712,-0.92471 -0.80137,-1.17468c-1.27667,-0.59204 -72.89336,-0.5131 -73.69289,0.0827c-0.59504,0.44356 -1.16797,151.95048 -0.58951,156.10226c0.33897,2.43581 -2.43543,2.26853 37.57597,2.26853c37.44148,0 37.01409,0.01504 37.3549,-1.38518c0.08843,-0.3571 0.18791,-14.26715 0.22291,-30.90996c0.06632,-31.52643 0.05711,-31.29338 1.28219,-31.29338c0.20633,0 0.63741,0.52813 0.95796,1.17468c0.32055,0.64466 0.73689,1.38518 0.92664,1.64455c0.18975,0.25749 0.59688,1.17468 0.90453,2.03548c0.30765,0.8608 0.81058,1.90204 1.11639,2.31364c0.30581,0.40973 0.55635,0.91907 0.55635,1.12769c0,0.20862 0.32792,1.01116 0.72952,1.77987c0.40161,0.76871 0.83269,1.74228 0.95796,2.1614c0.12527,0.41912 0.98559,2.38318 1.91039,4.36416c4.36609,9.3523 6.212,13.41762 6.89547,15.18058c0.3316,0.85516 0.794,1.91331 1.02796,2.34935c0.23396,0.43792 0.85479,1.85317 1.37983,3.14437c0.52504,1.29308 1.34851,3.19512 1.82933,4.22883c0.48266,1.03372 1.21403,2.65383 1.62669,3.60297c1.23798,2.84178 1.4351,3.26842 1.72985,3.75896c0.29107,0.48491 1.48852,3.08235 2.312,5.0107c0.25791,0.60331 0.60794,1.30812 0.77926,1.56749c0.17133,0.25749 0.74058,1.4566 1.26377,2.66135c1.8367,4.23447 2.13699,4.76261 2.90888,5.12159c1.02428,0.47551 79.203,0.52062 80.42808,0.04511c0.87874,-0.34019 0.8769,-1.7592 -0.00184,-2.81734c-0.21554,-0.25749 -0.69268,-1.03372 -1.06112,-1.72161c-0.36845,-0.68977 -1.00217,-1.81746 -1.40562,-2.50723c-0.40529,-0.68789 -1.03349,-1.81558 -1.39825,-2.50535c-0.36292,-0.68977 -0.84006,-1.46412 -1.06112,-1.72349c-0.21923,-0.25749 -0.90822,-1.4566 -1.53089,-2.66135c-0.62083,-1.20663 -1.30061,-2.40574 -1.50694,-2.66323c-0.42003,-0.5225 -3.05442,-4.98627 -4.01975,-6.81124c-0.34265,-0.64654 -1.32272,-2.37567 -2.17567,-3.83978c-3.7471,-6.42407 -5.01639,-8.68697 -5.30194,-9.45567c-0.16949,-0.45108 -0.46977,-0.92283 -0.66689,-1.04687c-0.19896,-0.12593 -0.62636,-0.83825 -0.94875,-1.5844c-0.32423,-0.74615 -0.73505,-1.4472 -0.9119,-1.55997c-0.1787,-0.11277 -0.59504,-0.7875 -0.9248,-1.50171c-0.3316,-0.71232 -1.35035,-2.49407 -2.2641,-3.95819c-0.91559,-1.466 -2.73571,-4.63668 -4.04554,-7.04806c-1.30983,-2.41325 -3.04152,-5.48809 -3.85026,-6.83756c-0.80874,-1.34759 -1.4701,-2.56925 -1.4701,-2.71585c0,-0.1466 -0.32239,-0.66534 -0.71663,-1.15212c-0.39424,-0.48679 -0.92848,-1.30812 -1.1864,-1.82498c-0.93033,-1.86257 -2.22357,-4.08036 -2.62149,-4.49572c-0.22291,-0.23118 -0.60609,-0.86644 -0.85111,-1.40961c-0.24502,-0.54129 -1.00217,-1.88136 -1.68011,-2.97522c-0.67978,-1.09386 -1.23429,-2.08247 -1.23429,-2.19711c0,-0.11465 -0.55267,-1.17468 -1.22877,-2.35311c-1.64511,-2.87373 -1.60458,-3.52215 0.4495,-7.12324c0.92296,-1.61635 2.24936,-4.05592 2.94757,-5.42231c0.69821,-1.3645 1.51063,-2.84366 1.80539,-3.28909c0.29476,-0.44356 0.88059,-1.37014 1.30246,-2.05991c0.42187,-0.68789 1.02981,-1.65206 1.3522,-2.13885c0.8069,-1.21978 2.16094,-3.58793 2.81124,-4.91297c0.2966,-0.60519 0.83453,-1.5205 1.19561,-2.03548c0.35923,-0.51498 0.87137,-1.43029 1.13666,-2.03172c0.4624,-1.05627 1.00586,-2.043 3.3676,-6.10832c0.60057,-1.03372 1.6709,-2.93763 2.382,-4.22883c0.70926,-1.29308 1.87355,-3.26654 2.58465,-4.38671c2.08725,-3.2797 2.81861,-4.56714 4.624,-8.1438c0.30397,-0.60331 0.87506,-1.53178 1.26745,-2.06555c0.3924,-0.53377 0.71479,-1.04311 0.71479,-1.13521c0,-0.09022 0.77558,-1.48291 1.72249,-3.09175c0.94691,-1.61072 1.83486,-3.23271 1.97303,-3.60485c0.14001,-0.37402 0.87322,-1.6671 1.63406,-2.87561c0.759,-1.20851 1.67459,-2.74028 2.03382,-3.40374c0.35923,-0.66534 1.40194,-2.47716 2.31753,-4.02773c0.91375,-1.55057 2.03566,-3.57853 2.49438,-4.50512c1.34483,-2.72901 3.05073,-2.54294 -23.39264,-2.54294c-12.69112,0 -24.51271,-0.04699 -26.2702,-0.10713c-1.75749,-0.05826 -8.83718,-0.02255 -15.73264,0.07894m261.64457,-0.06578c-0.45135,0.07142 -0.96901,0.31199 -1.14955,0.53565c-0.63557,0.78186 -0.45319,157.50435 0.18422,157.98362c0.74795,0.55821 66.11764,0.57324 66.66478,0.01504c0.28186,-0.28756 0.37029,-8.11184 0.37213,-33.28187c0.00368,-25.89738 0.08843,-33.07325 0.39424,-33.68972l0.38687,-0.78374l10.75125,-0.0827c8.93482,-0.06766 10.85074,-0.00564 11.35182,0.3665c0.58767,0.4398 0.60425,1.13897 0.75347,33.51116c0.14554,31.20128 0.18422,33.09204 0.70189,33.62017c0.89348,0.91155 66.06421,0.86456 66.7182,-0.04887c0.79584,-1.10889 0.63925,-157.29197 -0.15843,-157.72613c-1.0206,-0.55821 -65.76024,-0.44168 -66.51187,0.12029c-0.58214,0.43228 -0.59688,1.14273 -0.65952,29.99277c-0.07369,34.2498 0.40161,30.44385 -3.85026,30.80095c-5.34063,0.44732 -18.57336,0.06202 -19.17946,-0.55821c-0.51582,-0.52625 -0.5582,-2.30237 -0.70189,-30.43821c-0.08474,-16.43231 -0.26897,-29.99465 -0.40898,-30.13937c-0.25423,-0.25749 -64.08013,-0.45108 -65.65892,-0.19735m-163.28975,0.41725c-8.19055,0.09209 -14.92391,0.19735 -14.96443,0.23494c-0.89717,0.83825 -0.92296,2.21779 -0.64478,34.38888c0.15291,17.73479 0.37581,52.65933 0.4974,77.61321c0.21554,44.41216 0.23212,45.37633 0.81611,45.81237c0.66689,0.49618 30.24205,0.6409 33.09566,0.16164c1.23245,-0.20674 1.67827,-0.49806 2.95494,-1.93775c9.97752,-11.25058 14.71021,-16.66725 20.50771,-23.46721c2.05224,-2.40762 3.85579,-4.42054 6.30043,-7.0349c1.29509,-1.38518 2.67123,-2.94139 3.05994,-3.45825c0.76637,-1.02432 6.96547,-8.2622 7.51077,-8.77154c0.32423,-0.3026 1.65248,-1.78175 6.65229,-7.4108c1.30983,-1.47539 2.78545,-3.2515 3.27917,-3.94691c0.49556,-0.69541 1.04823,-1.36074 1.23245,-1.47539c0.18422,-0.11653 2.0025,-2.13885 4.04185,-4.49572c4.32556,-4.99566 7.16443,-8.22273 8.6069,-9.78082c1.82381,-1.97158 3.45602,-3.86609 4.71242,-5.46741c0.67426,-0.8608 2.74677,-3.2703 4.60558,-5.35089c5.57459,-6.2474 7.8958,-8.87679 9.67171,-10.96302c0.93033,-1.0901 2.6565,-3.08047 3.83921,-4.4243c1.18087,-1.34383 2.58281,-2.9865 3.11521,-3.64995c1.27298,-1.58816 2.1462,-1.39833 2.39306,0.51874c0.09395,0.7236 0.30213,23.32061 0.46424,50.21412c0.31318,52.11992 0.25054,50.37012 1.80723,50.76857c0.42371,0.10901 7.82579,0.10149 16.45111,-0.01504l15.6829,-0.21238l0.83269,-0.98297c0.45687,-0.53941 0.77189,-1.0807 0.69821,-1.20287c-0.07369,-0.12029 -0.28186,-35.08617 -0.46424,-77.69967c-0.23028,-54.07646 -0.43108,-77.60193 -0.65952,-77.88386c-0.25975,-0.32139 -3.83368,-0.40409 -17.33723,-0.40409l-17.01115,0l-1.41667,1.33067c-0.77926,0.733 -2.47043,2.59744 -3.75446,4.14614c-1.28588,1.54869 -2.54412,3.03724 -2.79835,3.30789c-0.25239,0.27252 -1.42773,1.60508 -2.6086,2.96206c-1.18271,1.35699 -2.63439,2.98274 -3.2239,3.61048c-1.85697,1.97534 -3.71578,4.08411 -5.6317,6.3846c-1.01691,1.22166 -2.47964,2.93763 -3.25154,3.81347c-0.77189,0.87396 -2.30095,2.62376 -3.39891,3.88489c-1.09797,1.26301 -2.40964,2.73841 -2.91625,3.28158c-0.50661,0.54129 -1.95829,2.16328 -3.2239,3.60485c-1.26745,1.44156 -2.58281,2.91508 -2.92362,3.27406c-0.34081,0.35898 -0.98007,1.1446 -1.42036,1.74792c-0.43845,0.60331 -2.57912,3.07671 -4.75295,5.49561c-6.49202,7.22661 -8.21266,9.20006 -8.52031,9.77707c-0.16027,0.30072 -0.5803,0.83449 -0.93217,1.18595c-1.58432,1.58064 -7.42419,8.08553 -7.68026,8.55164c-0.15659,0.28568 -2.78361,3.33796 -5.83803,6.78493c-3.05442,3.44509 -6.3778,7.25104 -7.3855,8.45767c-1.0077,1.20475 -3.3547,3.88301 -5.2172,5.95044c-3.37865,3.75333 -4.07133,4.54083 -7.83316,8.9219c-4.92428,5.73054 -6.11436,6.64209 -6.92679,5.3039c-0.11238,-0.18795 -0.29476,-22.87893 -0.40161,-50.42274c-0.17133,-43.93477 -0.25054,-50.13518 -0.65583,-50.52424c-0.66689,-0.64278 -2.52386,-0.69165 -19.03576,-0.50746m424.48113,54.82261c12.86245,1.50171 23.18262,17.6239 19.21446,30.01909c-0.35187,1.0995 -0.63925,2.16892 -0.63925,2.37567c0,0.81194 -2.62886,5.44862 -4.2316,7.46342c-2.19778,2.76284 -7.54946,6.80185 -9.01403,6.80185c-0.19712,0 -1.12744,0.37026 -2.06882,0.82509c-2.94388,1.42089 -12.8385,1.3833 -14.99391,-0.05826c-0.37397,-0.24997 -0.88243,-0.45483 -1.12744,-0.45483c-1.51247,0 -7.35971,-4.07848 -9.31984,-6.49925c-10.67941,-13.1996 -7.03179,-30.96259 7.91422,-38.54254c4.25739,-2.15952 7.98238,-2.66323 14.26623,-1.93023" id="svg_8"/>
 </g>
</svg>